<svg id="visual" viewBox="0 0 960 540" width="960" height="540" xmlns="http://www.w3.org/2000/svg" xmlns:xlink="http://www.w3.org/1999/xlink" version="1.1"><rect x="0" y="0" width="960" height="540" fill="#f6f6f6"></rect><path d="M0 426L22.8 414.7C45.7 403.3 91.3 380.7 137 387C182.7 393.3 228.3 428.7 274 418.7C319.7 408.7 365.3 353.3 411.2 357C457 360.7 503 423.3 548.8 434.8C594.7 446.3 640.3 406.7 686 392.3C731.7 378 777.3 389 823 412.5C868.7 436 914.3 472 937.2 490L960 508L960 541L937.2 541C914.3 541 868.7 541 823 541C777.3 541 731.7 541 686 541C640.3 541 594.7 541 548.8 541C503 541 457 541 411.2 541C365.3 541 319.7 541 274 541C228.3 541 182.7 541 137 541C91.3 541 45.7 541 22.8 541L0 541Z" fill="#f7caca"></path><path d="M0 334L22.8 347C45.7 360 91.3 386 137 413.2C182.7 440.3 228.3 468.7 274 464.8C319.7 461 365.3 425 411.2 422.3C457 419.7 503 450.3 548.8 471.2C594.7 492 640.3 503 686 505.8C731.7 508.7 777.3 503.3 823 474C868.7 444.7 914.3 391.3 937.2 364.7L960 338L960 541L937.2 541C914.3 541 868.7 541 823 541C777.3 541 731.7 541 686 541C640.3 541 594.7 541 548.8 541C503 541 457 541 411.2 541C365.3 541 319.7 541 274 541C228.3 541 182.7 541 137 541C91.3 541 45.7 541 22.8 541L0 541Z" fill="#b994a2"></path><path d="M0 509L22.8 491.2C45.7 473.3 91.3 437.7 137 435.7C182.7 433.7 228.3 465.3 274 479.8C319.7 494.3 365.3 491.7 411.2 487.8C457 484 503 479 548.8 471.2C594.7 463.3 640.3 452.7 686 447.2C731.7 441.7 777.3 441.3 823 448.5C868.7 455.7 914.3 470.3 937.2 477.7L960 485L960 541L937.2 541C914.3 541 868.7 541 823 541C777.3 541 731.7 541 686 541C640.3 541 594.7 541 548.8 541C503 541 457 541 411.2 541C365.3 541 319.7 541 274 541C228.3 541 182.7 541 137 541C91.3 541 45.7 541 22.8 541L0 541Z" fill="#796479"></path><path d="M0 422L22.8 435.3C45.7 448.7 91.3 475.3 137 486.8C182.7 498.3 228.3 494.7 274 485.3C319.7 476 365.3 461 411.2 458.8C457 456.7 503 467.3 548.8 473.7C594.7 480 640.3 482 686 476.8C731.7 471.7 777.3 459.3 823 449.2C868.7 439 914.3 431 937.2 427L960 423L960 541L937.2 541C914.3 541 868.7 541 823 541C777.3 541 731.7 541 686 541C640.3 541 594.7 541 548.8 541C503 541 457 541 411.2 541C365.3 541 319.7 541 274 541C228.3 541 182.7 541 137 541C91.3 541 45.7 541 22.8 541L0 541Z" fill="#3b394e"></path><path d="M0 512L22.8 512.3C45.7 512.7 91.3 513.3 137 506.8C182.7 500.3 228.3 486.7 274 477.2C319.7 467.7 365.3 462.3 411.2 462.8C457 463.3 503 469.7 548.8 469.5C594.7 469.3 640.3 462.7 686 471.8C731.7 481 777.3 506 823 516.7C868.7 527.3 914.3 523.7 937.2 521.8L960 520L960 541L937.2 541C914.3 541 868.7 541 823 541C777.3 541 731.7 541 686 541C640.3 541 594.7 541 548.8 541C503 541 457 541 411.2 541C365.3 541 319.7 541 274 541C228.3 541 182.7 541 137 541C91.3 541 45.7 541 22.8 541L0 541Z" fill="#001122"></path></svg>

                        